<svg width="16" height="16" viewBox="0 0 16 16" fill="none" xmlns="http://www.w3.org/2000/svg">
<path fill-rule="evenodd" clip-rule="evenodd" d="M1.12549 0.233579C1.46119 0.0730763 1.83848 -0.00676765 2.21887 0.000449125C2.59802 0.00764245 2.97 0.101145 3.29687 0.273429C3.29794 0.273994 3.29901 0.274559 3.30008 0.275125L14.9389 6.38061C15.2558 6.54385 15.5221 6.77614 15.7092 7.05761C15.899 7.34297 16 7.66787 16 8C16 8.33213 15.899 8.65703 15.7092 8.9424C15.5221 9.22388 15.2558 9.45617 14.9389 9.61941L3.30008 15.7249C3.29891 15.7255 3.29774 15.7261 3.29658 15.7267C2.96978 15.8989 2.59791 15.9924 2.21887 15.9996C1.83848 16.0068 1.46119 15.9269 1.12549 15.7664C0.789594 15.6058 0.505859 15.3694 0.30657 15.0787C0.107127 14.7879 0.000438418 14.4545 0 14.1132V1.88683C0.000438418 1.54552 0.107127 1.21211 0.30657 0.921254C0.505862 0.630618 0.789599 0.394177 1.12549 0.233579ZM3.04762 3.25186L12.0989 8L3.04762 12.7481V3.25186ZM1.72304 13.443C1.7247 13.4421 1.72636 13.4412 1.72803 13.4404L1.72304 13.443ZM13.3979 8.68124C13.3942 8.67935 13.3904 8.67743 13.3867 8.67548L13.3979 8.68124ZM13.3867 7.32452C13.3904 7.32258 13.3942 7.32065 13.3979 7.31876L13.3867 7.32452ZM1.72803 2.55963C1.72636 2.55876 1.7247 2.55788 1.72304 2.557L1.72803 2.55963Z" fill="white"/>
</svg>
